<svg xmlns="http://www.w3.org/2000/svg" width="256" height="256" fill="none" viewBox="0 0 256 256"><path fill="#febe00" d="M82.565 37.145c21.736-32.193 69.134-32.193 90.87 0l12.358 18.304a54.8 54.8 0 0 0 14.759 14.758l18.303 12.358c32.193 21.736 32.193 69.134 0 90.87l-18.303 12.358-.544.372a54.8 54.8 0 0 0-14.215 14.387l-12.358 18.304-.256.375c-21.765 31.692-68.593 31.692-90.358 0l-.256-.375-12.358-18.304a54.8 54.8 0 0 0-14.759-14.759l-18.303-12.358c-32.068-21.651-32.193-68.764-.376-90.614l.376-.256 18.303-12.358a54.8 54.8 0 0 0 14.387-14.215l.372-.543zm69.902 14.157c-11.705-17.336-37.229-17.336-48.934 0L91.175 69.606a80.1 80.1 0 0 1-21.569 21.568l-18.304 12.359c-17.336 11.705-17.336 37.229 0 48.934l18.304 12.358v.001a80.1 80.1 0 0 1 21.568 21.568l12.359 18.304c11.705 17.336 37.229 17.336 48.934 0l12.358-18.304a80.1 80.1 0 0 1 21.569-21.569l18.304-12.358c17.336-11.705 17.336-37.229 0-48.934l-18.304-12.358a80.1 80.1 0 0 1-21.568-21.569h-.001z"/></svg>