<svg xmlns="http://www.w3.org/2000/svg" width="1214" height="500" fill="none" viewBox="0 0 1214 500"><path fill="#febe00" d="M151.228 52.488c47.253-69.984 150.291-69.984 197.543 0l26.867 39.791a119.2 119.2 0 0 0 32.083 32.083l39.791 26.866c69.984 47.253 69.984 150.291 0 197.543l-39.791 26.867-1.181.807a119.2 119.2 0 0 0-30.902 31.276l-26.867 39.791-.556.816c-47.314 68.895-149.116 68.895-196.43 0l-.557-.816-26.866-39.791a119.2 119.2 0 0 0-32.083-32.083l-39.79-26.867c-69.712-47.067-69.984-149.486-.817-196.986l.816-.557 39.791-26.866a119.2 119.2 0 0 0 31.275-30.902l.808-1.18zm151.96 30.778c-25.445-37.687-80.931-37.687-106.377 0l-26.866 39.791a174.2 174.2 0 0 1-46.889 46.887l-39.79 26.867c-37.687 25.446-37.687 80.932 0 106.377l39.79 26.867v.001a174.2 174.2 0 0 1 46.888 46.887l26.867 39.791c25.446 37.687 80.932 37.687 106.377 0l26.867-39.791a174.2 174.2 0 0 1 46.888-46.888l39.791-26.867c37.687-25.445 37.687-80.931 0-106.377l-39.791-26.866a174.2 174.2 0 0 1-46.888-46.888z"/><path fill="#1a1d23" d="M761.637 353.613c1.734 2.632-.154 6.137-3.306 6.137h-47.479a3.96 3.96 0 0 1-3.301-1.774l-39.137-59.148c-1.61-2.432-5.207-2.348-6.702.156l-32.329 54.182q-6.913 11.522-20.412 11.522-9.546 0-16.79-6.584-7.243-6.914-7.243-17.12V139.84a3.96 3.96 0 0 1 3.959-3.959h39.819a3.96 3.96 0 0 1 3.959 3.959v105.69c0 4.075 5.414 5.492 7.411 1.94l61.578-109.57a3.96 3.96 0 0 1 3.451-2.019h46.365c3.07 0 4.971 3.342 3.404 5.981l-61.683 103.823a3.96 3.96 0 0 0 .097 4.2zm141.981-127.197q23.703 23.046 23.703 57.284 0 34.24-23.703 57.284-23.705 23.704-57.285 23.704-33.25 0-56.955-23.704-23.703-23.045-23.703-57.284t23.703-57.284q23.704-23.704 56.955-23.704 33.58 0 57.285 23.704m-57.285 94.486q15.474 0 26.338-10.864t10.864-26.338q0-15.473-10.864-26.337t-26.338-10.864q-15.144 0-26.337 10.864-10.864 10.864-10.864 26.337 0 15.474 10.864 26.338 11.193 10.864 26.337 10.864m182.977-118.19c2.84 0 5.69.171 8.53.512 1.92.231 3.32 1.894 3.32 3.83v35.986c0 2.865-2.97 4.791-5.77 4.153a27 27 0 0 0-6.08-.694c-8.12 0-15.04 2.853-20.74 8.559-5.71 5.707-8.56 12.62-8.56 20.741v79.992a3.96 3.96 0 0 1-3.962 3.959H960.18a3.96 3.96 0 0 1-3.959-3.959v-79.992q0-30.288 21.399-51.687c14.266-14.267 31.5-21.4 51.69-21.4m160.77 23.704c15.81 15.364 23.71 34.458 23.71 57.284v72.091a3.96 3.96 0 0 1-3.96 3.959h-36.15a3.68 3.68 0 0 1-3.68-3.675c0-3.117-3.68-4.873-6.26-3.126-11.55 7.826-24.28 11.739-38.18 11.739q-30.285 0-52.02-23.704c-14.48-15.802-21.73-34.897-21.73-57.284 0-22.606 8.01-41.701 24.04-57.284 15.8-15.802 34.78-23.704 56.95-23.704 22.39 0 41.48 7.902 57.28 23.704m-83.62 83.622c7.25 7.243 16.02 10.864 26.34 10.864q15.48 0 26.34-10.864T1170 283.7q0-15.473-10.86-26.337t-26.34-10.864c-10.32 0-19.09 3.621-26.34 10.864q-10.86 10.864-10.86 26.337 0 15.474 10.86 26.338"/></svg>