<svg width="1224" height="500" viewBox="0 0 1224 500" fill="none" xmlns="http://www.w3.org/2000/svg">
<path fill-rule="evenodd" clip-rule="evenodd" d="M633.154 125C638.479 125 642.828 129.182 643.095 134.441L643.107 134.953V265.423L723.246 129.887L723.329 129.752L723.505 129.475L723.598 129.334C725.445 126.633 728.514 125 731.813 125H764.59C764.647 125 764.706 125.001 764.764 125.003L765.097 125.015L765.256 125.022C768.578 125.245 771.587 127.12 773.245 130.041C775.012 133.154 774.972 136.979 773.135 140.056L709.129 247.255L779.854 354.605L779.946 354.752L780.124 355.043L780.208 355.187C781.881 358.149 781.932 361.779 780.305 364.801C778.568 368.024 775.202 370.034 771.541 370.034H737.773C734.429 370.034 731.308 368.355 729.466 365.565L681.601 293.068L639.724 363.511C639.716 363.524 639.708 363.536 639.702 363.546C639.691 363.564 639.683 363.579 639.679 363.586C639.677 363.59 639.674 363.594 639.674 363.594C639.675 363.592 639.681 363.58 639.689 363.568L639.263 364.254C634.633 371.447 627.351 375 618.918 375C612.759 375 607.218 372.805 602.666 368.777C602.651 368.764 602.636 368.752 602.622 368.738L602.269 368.419C602.258 368.409 602.246 368.398 602.235 368.388C602.143 368.303 602.047 368.21 601.949 368.112C597.311 363.473 595.06 357.575 595.06 351.142V134.953C595.06 129.456 599.516 125 605.013 125H633.154Z" fill="white"/>
<path fill-rule="evenodd" clip-rule="evenodd" d="M859.441 192.208C883.618 192.208 904.668 200.666 922.097 217.338L922.924 218.139L922.941 218.156L923.732 218.937L923.754 218.96C941.686 236.892 950.837 258.607 950.837 283.603C950.837 308.6 941.686 330.315 923.754 348.247C906.013 365.988 884.396 375 859.441 375C834.293 375 812.558 366.009 794.797 348.247C777.036 330.486 768.044 308.751 768.044 283.603C768.044 258.456 777.035 236.721 794.797 218.96C812.558 201.198 834.294 192.208 859.441 192.208ZM859.441 237.606C846.66 237.606 835.94 242.054 826.75 251.244C817.829 260.165 813.45 270.748 813.443 283.576L813.456 284.814L813.493 285.96C814 297.723 818.35 307.69 826.749 316.291C835.909 325.237 846.628 329.601 859.441 329.602C872.281 329.602 882.874 325.222 891.801 316.295L892.648 315.429C901.265 306.433 905.439 295.984 905.439 283.603C905.439 271.225 901.269 260.934 892.742 252.188L891.86 251.303C891.854 251.298 891.845 251.289 891.836 251.28C891.814 251.258 891.774 251.22 891.729 251.173C882.786 242.048 872.215 237.606 859.441 237.606Z" fill="white"/>
<path fill-rule="evenodd" clip-rule="evenodd" d="M1039.45 192.208C1040.68 192.208 1042.09 192.361 1043.42 192.538H1046.08C1051.4 192.539 1055.75 196.72 1056.02 201.979L1056.03 202.491V228.315C1056.03 228.363 1056.03 228.411 1056.03 228.459L1056.02 228.728C1056.02 228.77 1056.02 228.812 1056.02 228.854C1055.87 231.54 1054.64 234.062 1052.6 235.834C1050.55 237.607 1047.88 238.465 1045.2 238.229C1045.16 238.226 1045.12 238.222 1045.09 238.218L1044.82 238.187C1044.77 238.182 1044.72 238.176 1044.67 238.169C1041.59 237.729 1040 237.606 1039.45 237.606C1030.53 237.606 1023.13 240.611 1016.74 246.893L1016.13 247.511C1016.09 247.547 1016.06 247.578 1016.05 247.591L1016.03 247.605L1016.03 247.602C1009.52 254.112 1006.37 261.73 1006.37 271.023V360.081C1006.37 360.125 1006.37 360.169 1006.37 360.213L1006.36 360.469C1006.36 360.509 1006.36 360.549 1006.36 360.588C1006.09 365.852 1001.74 370.034 996.416 370.034H970.923C965.427 370.034 960.97 365.578 960.97 360.081V271.023C960.97 249.446 968.608 230.713 983.692 215.377L983.75 215.319C999.074 199.995 1017.82 192.208 1039.45 192.208Z" fill="white"/>
<path fill-rule="evenodd" clip-rule="evenodd" d="M1137.49 197.184C1138.03 197.184 1138.56 197.19 1139.09 197.199C1139.66 197.208 1140.22 197.221 1140.78 197.24C1140.89 197.244 1141 197.249 1141.12 197.253C1141.35 197.262 1141.59 197.27 1141.83 197.281C1142.04 197.29 1142.26 197.303 1142.47 197.314C1142.62 197.321 1142.77 197.328 1142.92 197.337C1143.11 197.348 1143.31 197.361 1143.5 197.373C1143.66 197.383 1143.82 197.392 1143.98 197.403C1144.15 197.414 1144.31 197.428 1144.48 197.44C1144.68 197.455 1144.88 197.469 1145.08 197.485C1145.19 197.494 1145.31 197.504 1145.42 197.514C1145.66 197.535 1145.91 197.555 1146.15 197.578C1146.27 197.588 1146.38 197.6 1146.49 197.611C1146.72 197.633 1146.95 197.655 1147.18 197.679C1147.76 197.739 1148.33 197.804 1148.89 197.874C1149.02 197.89 1149.15 197.905 1149.27 197.921C1149.52 197.953 1149.76 197.987 1150.01 198.02C1150.1 198.032 1150.19 198.044 1150.28 198.056C1150.47 198.083 1150.66 198.111 1150.85 198.139C1151.04 198.167 1151.22 198.194 1151.41 198.223C1151.52 198.24 1151.63 198.258 1151.74 198.276C1151.97 198.311 1152.2 198.346 1152.42 198.384C1152.55 198.406 1152.68 198.428 1152.82 198.451C1153.04 198.488 1153.26 198.526 1153.47 198.566C1153.63 198.594 1153.79 198.623 1153.94 198.652C1154.1 198.681 1154.26 198.709 1154.41 198.739C1154.64 198.782 1154.86 198.826 1155.09 198.871C1155.21 198.895 1155.33 198.918 1155.45 198.943C1155.64 198.981 1155.83 199.022 1156.02 199.062C1156.18 199.095 1156.33 199.127 1156.49 199.16C1156.64 199.193 1156.79 199.228 1156.94 199.261C1157.15 199.307 1157.35 199.353 1157.55 199.4C1157.68 199.429 1157.81 199.459 1157.94 199.49C1158.13 199.533 1158.31 199.577 1158.5 199.622C1158.66 199.662 1158.83 199.704 1158.99 199.746C1159.18 199.792 1159.37 199.839 1159.55 199.886C1159.69 199.921 1159.82 199.957 1159.95 199.991C1160.13 200.037 1160.3 200.082 1160.47 200.128C1160.65 200.176 1160.83 200.225 1161 200.273C1161.17 200.321 1161.35 200.368 1161.52 200.417C1161.67 200.461 1161.83 200.507 1161.98 200.552C1162.16 200.602 1162.33 200.653 1162.5 200.704C1162.63 200.743 1162.77 200.784 1162.9 200.823C1163.1 200.885 1163.3 200.948 1163.51 201.011C1163.66 201.059 1163.81 201.107 1163.97 201.156C1164.11 201.2 1164.25 201.244 1164.38 201.289C1164.59 201.356 1164.8 201.425 1165 201.493C1165.13 201.536 1165.26 201.577 1165.38 201.62C1165.55 201.678 1165.72 201.737 1165.89 201.795C1166.07 201.855 1166.24 201.916 1166.41 201.977C1166.53 202.021 1166.66 202.063 1166.78 202.107C1167 202.189 1167.23 202.271 1167.46 202.354C1167.54 202.384 1167.62 202.415 1167.7 202.446C1167.9 202.521 1168.1 202.597 1168.3 202.674C1168.49 202.747 1168.69 202.821 1168.88 202.896C1168.96 202.93 1169.05 202.964 1169.14 202.999C1169.35 203.085 1169.57 203.172 1169.79 203.259C1169.91 203.31 1170.04 203.361 1170.16 203.413C1170.34 203.486 1170.52 203.559 1170.69 203.633C1170.84 203.697 1170.99 203.76 1171.14 203.824C1171.29 203.887 1171.44 203.95 1171.58 204.014C1171.76 204.09 1171.93 204.166 1172.11 204.243C1172.24 204.301 1172.37 204.361 1172.5 204.42C1172.69 204.504 1172.88 204.589 1173.06 204.675C1173.2 204.737 1173.33 204.799 1173.47 204.861C1173.61 204.929 1173.76 204.997 1173.9 205.065C1174.07 205.143 1174.23 205.221 1174.39 205.299C1174.59 205.393 1174.78 205.489 1174.98 205.584C1175.06 205.626 1175.15 205.667 1175.23 205.709C1175.41 205.797 1175.59 205.888 1175.77 205.978C1175.94 206.063 1176.11 206.149 1176.28 206.235C1176.32 206.259 1176.37 206.283 1176.41 206.306L1176.97 206.598C1177.01 206.619 1177.05 206.64 1177.09 206.661C1177.29 206.765 1177.49 206.871 1177.68 206.977C1177.79 207.036 1177.9 207.094 1178.01 207.153C1178.22 207.267 1178.42 207.382 1178.63 207.497C1178.71 207.543 1178.8 207.588 1178.88 207.634C1179.06 207.735 1179.24 207.837 1179.42 207.939C1179.58 208.03 1179.73 208.12 1179.89 208.212C1179.99 208.27 1180.09 208.33 1180.19 208.388C1180.38 208.496 1180.56 208.603 1180.74 208.712C1180.89 208.802 1181.05 208.894 1181.2 208.985C1181.34 209.069 1181.48 209.153 1181.61 209.238C1181.74 209.317 1181.87 209.397 1182 209.476C1182.16 209.576 1182.32 209.677 1182.48 209.778C1182.63 209.871 1182.78 209.965 1182.92 210.058C1183.09 210.162 1183.25 210.266 1183.41 210.371C1183.51 210.435 1183.61 210.5 1183.71 210.565C1183.88 210.674 1184.04 210.783 1184.21 210.894C1184.41 211.024 1184.6 211.156 1184.8 211.288C1184.89 211.349 1184.98 211.411 1185.07 211.473C1185.28 211.614 1185.48 211.757 1185.69 211.9C1185.76 211.95 1185.83 211.999 1185.9 212.049C1186.08 212.174 1186.26 212.3 1186.44 212.427C1186.57 212.523 1186.71 212.618 1186.84 212.715C1186.94 212.783 1187.03 212.852 1187.13 212.921C1187.32 213.058 1187.5 213.196 1187.69 213.335C1187.81 213.419 1187.92 213.504 1188.03 213.589C1188.19 213.704 1188.35 213.82 1188.5 213.936C1188.69 214.08 1188.88 214.225 1189.07 214.371C1189.16 214.441 1189.25 214.51 1189.34 214.58C1189.52 214.721 1189.71 214.865 1189.89 215.008C1189.99 215.087 1190.09 215.166 1190.19 215.246C1190.89 215.8 1191.58 216.368 1192.27 216.948C1193.23 217.758 1194.18 218.591 1195.12 219.451C1195.92 220.181 1196.71 220.93 1197.49 221.697L1198.28 222.478C1206.03 230.227 1212.03 238.688 1216.28 247.837C1216.76 248.883 1217.22 249.938 1217.66 251.001C1217.78 251.3 1217.91 251.599 1218.03 251.899C1218.16 252.243 1218.3 252.588 1218.43 252.933C1218.66 253.526 1218.88 254.121 1219.09 254.719C1219.19 255.012 1219.3 255.306 1219.4 255.601C1219.57 256.095 1219.73 256.591 1219.89 257.089C1220.3 258.361 1220.68 259.646 1221.02 260.943C1221.25 261.791 1221.46 262.645 1221.66 263.504C1222.02 265.016 1222.33 266.543 1222.59 268.087C1222.63 268.27 1222.66 268.454 1222.69 268.638C1222.84 269.554 1222.98 270.475 1223.11 271.402C1223.25 272.436 1223.37 273.476 1223.47 274.523C1223.76 277.496 1223.91 280.523 1223.91 283.604V360.081C1223.91 360.893 1223.71 361.66 1223.37 362.337C1223.36 362.361 1223.34 362.384 1223.33 362.407C1223.27 362.523 1223.2 362.637 1223.13 362.747C1223.12 362.772 1223.1 362.798 1223.08 362.823C1223.07 362.839 1223.06 362.855 1223.05 362.871C1223.02 362.921 1222.98 362.97 1222.95 363.018C1222.92 363.058 1222.89 363.098 1222.86 363.137C1222.85 363.152 1222.84 363.168 1222.82 363.183C1222.79 363.228 1222.75 363.271 1222.71 363.315C1222.7 363.332 1222.68 363.349 1222.67 363.365C1222.64 363.404 1222.6 363.442 1222.57 363.479C1222.54 363.502 1222.52 363.525 1222.5 363.547C1222.47 363.575 1222.45 363.603 1222.42 363.631C1222.39 363.661 1222.36 363.691 1222.32 363.72C1222.29 363.751 1222.26 363.781 1222.22 363.811C1222.2 363.827 1222.19 363.843 1222.17 363.859C1222.12 363.899 1222.08 363.939 1222.03 363.977C1222.02 363.984 1222.01 363.99 1222 363.997C1221.96 364.032 1221.91 364.067 1221.86 364.1C1221.83 364.125 1221.8 364.15 1221.76 364.174C1221.74 364.189 1221.72 364.203 1221.7 364.218C1221.65 364.249 1221.6 364.279 1221.56 364.308C1221.53 364.325 1221.5 364.341 1221.48 364.357C1221.45 364.374 1221.42 364.391 1221.39 364.407C1221.34 364.433 1221.3 364.46 1221.25 364.484C1221.23 364.493 1221.22 364.5 1221.2 364.508C1221.15 364.534 1221.1 364.559 1221.05 364.583C1221.01 364.605 1220.96 364.626 1220.91 364.646C1220.9 364.653 1220.88 364.66 1220.87 364.667C1220.81 364.692 1220.75 364.715 1220.69 364.738C1220.66 364.745 1220.65 364.754 1220.62 364.761C1220.58 364.778 1220.53 364.794 1220.48 364.81C1220.45 364.819 1220.42 364.83 1220.39 364.839C1220.36 364.85 1220.32 364.859 1220.28 364.87C1220.16 364.904 1220.04 364.935 1219.91 364.96C1219.88 364.967 1219.85 364.972 1219.81 364.978C1219.77 364.986 1219.73 364.994 1219.68 365C1219.44 365.037 1219.19 365.056 1218.94 365.057C1218.94 365.057 1218.93 365.058 1218.93 365.058H1193.44C1190.69 365.057 1188.46 362.829 1188.46 360.081V343.876C1187.73 344.694 1186.97 345.495 1186.21 346.282C1185.76 346.736 1185.32 347.183 1184.86 347.627C1180.17 352.222 1174.95 356.255 1169.18 359.714C1169.18 359.719 1169.17 359.724 1169.16 359.729C1157.56 366.593 1144.87 370.024 1131.2 370.024C1126.42 370.024 1121.79 369.627 1117.31 368.837C1117.3 368.835 1117.29 368.833 1117.28 368.831C1117.01 368.783 1116.74 368.733 1116.47 368.682C1116.41 368.671 1116.35 368.66 1116.29 368.648C1116.04 368.6 1115.79 368.551 1115.54 368.501C1115.47 368.488 1115.4 368.474 1115.34 368.46C1114.77 368.345 1114.2 368.222 1113.64 368.093C1113.56 368.074 1113.48 368.055 1113.39 368.036C1113.2 367.99 1113 367.944 1112.81 367.897C1112.69 367.868 1112.57 367.84 1112.45 367.811C1112.24 367.757 1112.02 367.702 1111.8 367.646C1111.7 367.621 1111.61 367.597 1111.51 367.572C1111.31 367.52 1111.11 367.466 1110.91 367.412C1110.8 367.382 1110.69 367.353 1110.58 367.323C1110.36 367.264 1110.15 367.203 1109.93 367.142C1109.83 367.113 1109.73 367.085 1109.63 367.056C1109.45 367.003 1109.27 366.95 1109.09 366.896C1108.94 366.852 1108.8 366.809 1108.66 366.765C1108.5 366.718 1108.34 366.67 1108.19 366.622C1108.05 366.577 1107.9 366.533 1107.76 366.487C1107.58 366.429 1107.4 366.369 1107.21 366.309C1107.09 366.267 1106.96 366.226 1106.84 366.184C1106.67 366.129 1106.5 366.072 1106.34 366.015C1106.2 365.968 1106.06 365.921 1105.93 365.873C1105.74 365.809 1105.56 365.744 1105.37 365.678C1105.26 365.637 1105.15 365.596 1105.03 365.554C1104.86 365.493 1104.7 365.431 1104.53 365.369C1104.38 365.313 1104.23 365.256 1104.08 365.199C1103.91 365.134 1103.73 365.067 1103.56 365C1103.45 364.958 1103.34 364.914 1103.23 364.871C1103.05 364.798 1102.86 364.725 1102.68 364.65C1102.57 364.604 1102.45 364.557 1102.34 364.51C1102.15 364.433 1101.96 364.354 1101.77 364.275C1101.66 364.23 1101.56 364.185 1101.45 364.14C1101.27 364.063 1101.09 363.985 1100.91 363.906C1100.77 363.847 1100.64 363.787 1100.5 363.727C1100.36 363.666 1100.23 363.605 1100.09 363.543C1099.92 363.469 1099.76 363.395 1099.6 363.32C1099.44 363.25 1099.29 363.179 1099.14 363.108C1099.02 363.051 1098.9 362.993 1098.77 362.935C1098.61 362.855 1098.44 362.776 1098.27 362.695C1098.16 362.637 1098.04 362.58 1097.92 362.522C1097.75 362.44 1097.59 362.358 1097.42 362.275C1097.27 362.2 1097.12 362.125 1096.98 362.049C1096.85 361.984 1096.72 361.919 1096.59 361.853C1096.41 361.759 1096.23 361.665 1096.05 361.569C1095.95 361.516 1095.85 361.463 1095.75 361.41C1095.59 361.328 1095.44 361.245 1095.29 361.162C1095.12 361.069 1094.95 360.976 1094.78 360.882C1094.68 360.831 1094.59 360.779 1094.5 360.727C1094.34 360.636 1094.17 360.545 1094.01 360.452C1093.86 360.366 1093.71 360.279 1093.56 360.192C1093.41 360.108 1093.27 360.025 1093.12 359.94C1092.99 359.861 1092.85 359.781 1092.72 359.701C1092.58 359.619 1092.44 359.537 1092.31 359.454C1092.15 359.362 1092 359.268 1091.85 359.174C1091.73 359.101 1091.61 359.029 1091.49 358.955C1091.34 358.862 1091.19 358.769 1091.04 358.675C1090.91 358.588 1090.77 358.5 1090.63 358.412C1090.49 358.323 1090.35 358.233 1090.22 358.143C1090.09 358.059 1089.96 357.976 1089.83 357.891C1089.66 357.78 1089.49 357.668 1089.32 357.555C1089.22 357.484 1089.11 357.414 1089.01 357.343C1088.87 357.251 1088.73 357.158 1088.6 357.065C1088.45 356.962 1088.3 356.858 1088.15 356.754C1087.96 356.624 1087.78 356.494 1087.59 356.362C1087.53 356.317 1087.46 356.273 1087.4 356.228C1087.26 356.128 1087.12 356.027 1086.98 355.926C1086.82 355.805 1086.65 355.685 1086.48 355.563C1086.35 355.464 1086.22 355.364 1086.08 355.264C1085.98 355.19 1085.88 355.117 1085.78 355.042C1085.61 354.914 1085.44 354.784 1085.27 354.654C1085.16 354.569 1085.05 354.483 1084.94 354.397C1084.81 354.298 1084.68 354.199 1084.55 354.099C1084.42 353.994 1084.28 353.887 1084.15 353.781C1083.95 353.624 1083.76 353.467 1083.56 353.308C1083.5 353.262 1083.45 353.216 1083.39 353.17C1083.24 353.048 1083.09 352.926 1082.94 352.803C1082.81 352.7 1082.69 352.598 1082.57 352.495C1082.37 352.331 1082.18 352.166 1081.98 352.001C1081.92 351.954 1081.87 351.906 1081.81 351.859C1081.61 351.685 1081.4 351.509 1081.2 351.332C1081.15 351.284 1081.09 351.236 1081.03 351.187C1080.83 351.009 1080.63 350.828 1080.42 350.647C1080.36 350.594 1080.3 350.542 1080.25 350.489C1079.32 349.662 1078.41 348.808 1077.51 347.929C1077.12 347.556 1076.74 347.179 1076.36 346.797C1075.9 346.332 1075.44 345.862 1074.99 345.384L1074.25 344.6L1074.23 344.573C1070.01 339.975 1066.38 335.111 1063.31 329.988C1063.04 329.537 1062.77 329.084 1062.51 328.628C1055.73 316.784 1051.96 303.581 1051.21 289.087C1051.21 289.074 1051.21 289.06 1051.21 289.047C1051.11 287.252 1051.07 285.437 1051.07 283.603C1051.07 259.774 1059.54 239.305 1076.36 222.478C1090.82 208.018 1107.97 199.732 1127.64 197.687C1128.35 197.613 1129.07 197.546 1129.79 197.489C1132.32 197.286 1134.88 197.184 1137.49 197.184ZM1137.49 232.63C1123.37 232.63 1111.39 237.613 1101.28 247.726C1091.41 257.597 1086.51 269.459 1086.51 283.604C1086.51 288.144 1087.02 292.462 1088.03 296.567C1088.1 296.851 1088.17 297.134 1088.25 297.415C1088.55 298.546 1088.89 299.66 1089.27 300.758C1089.38 301.08 1089.49 301.401 1089.61 301.72C1089.86 302.411 1090.13 303.095 1090.42 303.773C1090.5 303.96 1090.58 304.147 1090.66 304.334C1091.14 305.417 1091.65 306.483 1092.21 307.534C1092.29 307.683 1092.37 307.832 1092.45 307.981C1093.07 309.13 1093.74 310.261 1094.47 311.371C1094.64 311.633 1094.81 311.893 1094.99 312.153C1095.04 312.232 1095.09 312.312 1095.15 312.392C1095.44 312.817 1095.74 313.239 1096.05 313.659C1096.24 313.918 1096.43 314.175 1096.62 314.432C1096.88 314.769 1097.14 315.102 1097.41 315.436C1097.81 315.934 1098.21 316.43 1098.63 316.92C1099.47 317.901 1100.35 318.865 1101.28 319.812C1102.87 321.374 1104.52 322.811 1106.21 324.124C1106.6 324.429 1107 324.725 1107.39 325.016C1107.51 325.1 1107.62 325.184 1107.74 325.267C1108.06 325.496 1108.38 325.721 1108.7 325.941C1109.01 326.153 1109.32 326.36 1109.63 326.564C1109.83 326.699 1110.04 326.832 1110.25 326.963C1111.76 327.918 1113.3 328.782 1114.88 329.557C1115.41 329.817 1115.94 330.067 1116.48 330.306C1117.81 330.897 1119.16 331.426 1120.53 331.893C1120.91 332.023 1121.3 332.147 1121.68 332.267C1122.26 332.448 1122.85 332.62 1123.44 332.78C1123.57 332.814 1123.69 332.848 1123.82 332.881C1124.11 332.958 1124.41 333.032 1124.7 333.104C1128.75 334.087 1133.01 334.577 1137.49 334.577C1139.26 334.577 1140.99 334.502 1142.69 334.349C1143.11 334.31 1143.53 334.267 1143.95 334.219C1145.64 334.027 1147.29 333.757 1148.91 333.41C1153.13 332.504 1157.11 331.071 1160.87 329.108C1161.59 328.733 1162.3 328.339 1163 327.926C1163.17 327.822 1163.35 327.718 1163.52 327.612C1163.87 327.4 1164.22 327.184 1164.56 326.963C1164.9 326.742 1165.25 326.516 1165.59 326.285C1165.93 326.054 1166.26 325.818 1166.6 325.578C1168.95 323.894 1171.21 321.973 1173.37 319.814C1175.42 317.759 1177.26 315.628 1178.9 313.417C1179.27 312.907 1179.64 312.393 1179.99 311.875C1180.23 311.529 1180.46 311.181 1180.69 310.832C1180.87 310.551 1181.04 310.269 1181.22 309.986C1182.9 307.272 1184.29 304.445 1185.38 301.502C1185.47 301.254 1185.56 301.006 1185.65 300.757C1186.1 299.47 1186.5 298.161 1186.85 296.829C1186.87 296.742 1186.89 296.654 1186.91 296.567C1186.98 296.29 1187.05 296.012 1187.11 295.733C1187.24 295.193 1187.36 294.65 1187.47 294.103C1187.69 292.947 1187.88 291.775 1188.03 290.587C1188.06 290.36 1188.09 290.132 1188.11 289.904C1188.19 289.277 1188.25 288.645 1188.3 288.009C1188.41 286.564 1188.46 285.096 1188.46 283.603C1188.46 282.569 1188.44 281.548 1188.38 280.538C1188.06 274.53 1186.8 268.948 1184.57 263.767C1184.41 263.388 1184.24 263.011 1184.07 262.636C1183.81 262.07 1183.54 261.51 1183.25 260.954C1183.04 260.544 1182.83 260.136 1182.6 259.731C1182.53 259.607 1182.46 259.483 1182.39 259.359C1182.2 259.018 1182.01 258.68 1181.81 258.343C1181.41 257.682 1181 257.028 1180.57 256.381C1180.47 256.218 1180.36 256.056 1180.25 255.894C1180.05 255.603 1179.85 255.312 1179.64 255.024C1179.49 254.815 1179.34 254.607 1179.19 254.399C1178.97 254.095 1178.74 253.791 1178.51 253.49C1178.21 253.103 1177.9 252.719 1177.59 252.338C1177.15 251.792 1176.69 251.251 1176.21 250.716C1175.33 249.712 1174.39 248.727 1173.4 247.761C1173.38 247.737 1173.35 247.713 1173.33 247.69C1172.25 246.587 1171.15 245.545 1170.02 244.565C1169.7 244.285 1169.37 244.01 1169.05 243.739C1165.95 241.172 1162.67 239.052 1159.21 237.378C1158.84 237.202 1158.48 237.03 1158.11 236.864C1157.37 236.531 1156.63 236.218 1155.87 235.925C1155.68 235.851 1155.5 235.779 1155.31 235.708C1153.41 234.999 1151.47 234.413 1149.47 233.95C1149.11 233.867 1148.75 233.788 1148.39 233.712C1148.31 233.695 1148.22 233.679 1148.14 233.662C1147.57 233.547 1147 233.442 1146.43 233.346C1143.55 232.868 1140.58 232.63 1137.49 232.63Z" fill="white"/>
<path d="M151.228 52.4883C198.481 -17.4961 301.519 -17.4961 348.771 52.4883L375.638 92.2793C384.179 104.929 395.071 115.821 407.721 124.362L447.512 151.228C517.496 198.481 517.496 301.519 447.512 348.771L407.721 375.638L406.54 376.445C394.392 384.861 383.912 395.466 375.638 407.721L348.771 447.512L348.215 448.328C300.901 517.223 199.099 517.223 151.785 448.328L151.228 447.512L124.362 407.721C115.821 395.071 104.929 384.179 92.2791 375.638L52.4881 348.771C-17.2229 301.704 -17.4949 199.285 51.6717 151.785L52.4881 151.228L92.2791 124.362C104.534 116.088 115.139 105.608 123.554 93.4599L124.362 92.2793L151.228 52.4883ZM303.188 83.2656C277.743 45.5787 222.257 45.5787 196.811 83.2656L169.945 123.057C157.463 141.544 141.544 157.462 123.056 169.944L83.2654 196.811C45.5786 222.257 45.5786 277.743 83.2654 303.188L123.056 330.055V330.056C141.544 342.538 157.462 358.456 169.944 376.943L196.811 416.734C222.257 454.421 277.743 454.421 303.188 416.734L330.055 376.943C342.537 358.455 358.455 342.537 376.943 330.055L416.734 303.188C454.421 277.743 454.421 222.257 416.734 196.811L376.943 169.945C358.455 157.463 342.538 141.544 330.055 123.057H330.055L303.188 83.2656Z" fill="#FEBE00"/>
</svg>
